<mxfile host="65bd71144e">
    <diagram id="IY6VY7t3PBthda8JnXDB" name="Page-1">
        <mxGraphModel dx="618" dy="351" grid="1" gridSize="10" guides="1" tooltips="1" connect="1" arrows="1" fold="1" page="1" pageScale="1" pageWidth="850" pageHeight="1100" math="0" shadow="0">
            <root>
                <mxCell id="0"/>
                <mxCell id="1" parent="0"/>
                <mxCell id="2" value="" style="rounded=0;whiteSpace=wrap;html=1;fillColor=none;strokeWidth=2;" vertex="1" parent="1">
                    <mxGeometry x="350" y="153" width="450" height="210" as="geometry"/>
                </mxCell>
                <mxCell id="3" value="Client" style="rounded=0;whiteSpace=wrap;html=1;" vertex="1" parent="1">
                    <mxGeometry x="150" y="70" width="120" height="60" as="geometry"/>
                </mxCell>
                <mxCell id="4" value="FLASK APP &lt;br&gt;SERVER" style="rounded=0;whiteSpace=wrap;html=1;" vertex="1" parent="1">
                    <mxGeometry x="320" y="70" width="120" height="60" as="geometry"/>
                </mxCell>
                <mxCell id="5" value="Cache System" style="rounded=0;whiteSpace=wrap;html=1;" vertex="1" parent="1">
                    <mxGeometry x="490" y="70" width="120" height="60" as="geometry"/>
                </mxCell>
                <mxCell id="6" value="" style="endArrow=none;html=1;rounded=0;entryX=0.417;entryY=1.017;entryDx=0;entryDy=0;entryPerimeter=0;" edge="1" parent="1" target="3">
                    <mxGeometry width="50" height="50" relative="1" as="geometry">
                        <mxPoint x="200" y="440" as="sourcePoint"/>
                        <mxPoint x="230" y="200" as="targetPoint"/>
                    </mxGeometry>
                </mxCell>
                <mxCell id="7" value="" style="endArrow=none;html=1;rounded=0;entryX=0.417;entryY=1.017;entryDx=0;entryDy=0;entryPerimeter=0;" edge="1" parent="1" source="14">
                    <mxGeometry width="50" height="50" relative="1" as="geometry">
                        <mxPoint x="379.5" y="439" as="sourcePoint"/>
                        <mxPoint x="379.5" y="130" as="targetPoint"/>
                    </mxGeometry>
                </mxCell>
                <mxCell id="8" value="" style="endArrow=none;html=1;rounded=0;entryX=0.417;entryY=1.017;entryDx=0;entryDy=0;entryPerimeter=0;" edge="1" parent="1" source="17">
                    <mxGeometry width="50" height="50" relative="1" as="geometry">
                        <mxPoint x="549.5" y="439" as="sourcePoint"/>
                        <mxPoint x="549.5" y="130" as="targetPoint"/>
                    </mxGeometry>
                </mxCell>
                <mxCell id="9" value="" style="endArrow=classic;html=1;rounded=0;" edge="1" parent="1">
                    <mxGeometry width="50" height="50" relative="1" as="geometry">
                        <mxPoint x="200" y="210" as="sourcePoint"/>
                        <mxPoint x="350" y="210" as="targetPoint"/>
                    </mxGeometry>
                </mxCell>
                <mxCell id="10" value="GET /value-stock" style="text;html=1;align=center;verticalAlign=middle;resizable=0;points=[];autosize=1;strokeColor=none;fillColor=none;" vertex="1" parent="1">
                    <mxGeometry x="220" y="180" width="120" height="30" as="geometry"/>
                </mxCell>
                <mxCell id="11" value="" style="rounded=0;whiteSpace=wrap;html=1;" vertex="1" parent="1">
                    <mxGeometry x="185" y="180" width="30" height="100" as="geometry"/>
                </mxCell>
                <mxCell id="12" value="" style="endArrow=classic;html=1;rounded=0;entryX=1.1;entryY=0.61;entryDx=0;entryDy=0;entryPerimeter=0;exitX=-0.167;exitY=0.61;exitDx=0;exitDy=0;exitPerimeter=0;dashed=1;fillColor=#d5e8d4;strokeColor=#82b366;" edge="1" parent="1">
                    <mxGeometry width="50" height="50" relative="1" as="geometry">
                        <mxPoint x="343.5" y="232.5" as="sourcePoint"/>
                        <mxPoint x="216.5" y="232.5" as="targetPoint"/>
                    </mxGeometry>
                </mxCell>
                <mxCell id="13" value="" style="endArrow=none;html=1;rounded=0;entryX=0.417;entryY=1.017;entryDx=0;entryDy=0;entryPerimeter=0;" edge="1" parent="1" target="14">
                    <mxGeometry width="50" height="50" relative="1" as="geometry">
                        <mxPoint x="379.5" y="439" as="sourcePoint"/>
                        <mxPoint x="379.5" y="130" as="targetPoint"/>
                    </mxGeometry>
                </mxCell>
                <mxCell id="14" value="" style="rounded=0;whiteSpace=wrap;html=1;" vertex="1" parent="1">
                    <mxGeometry x="365" y="178" width="30" height="42" as="geometry"/>
                </mxCell>
                <mxCell id="15" value="" style="endArrow=none;dashed=1;html=1;rounded=0;entryX=0.998;entryY=0.405;entryDx=0;entryDy=0;entryPerimeter=0;strokeWidth=2;" edge="1" parent="1" target="2">
                    <mxGeometry width="50" height="50" relative="1" as="geometry">
                        <mxPoint x="350" y="240" as="sourcePoint"/>
                        <mxPoint x="450" y="270" as="targetPoint"/>
                        <Array as="points">
                            <mxPoint x="600" y="240"/>
                        </Array>
                    </mxGeometry>
                </mxCell>
                <mxCell id="16" value="" style="endArrow=none;html=1;rounded=0;entryX=0.5;entryY=0.952;entryDx=0;entryDy=0;entryPerimeter=0;" edge="1" parent="1" source="34" target="17">
                    <mxGeometry width="50" height="50" relative="1" as="geometry">
                        <mxPoint x="549.5" y="439" as="sourcePoint"/>
                        <mxPoint x="550" y="230" as="targetPoint"/>
                    </mxGeometry>
                </mxCell>
                <mxCell id="17" value="" style="rounded=0;whiteSpace=wrap;html=1;" vertex="1" parent="1">
                    <mxGeometry x="535" y="180" width="30" height="42" as="geometry"/>
                </mxCell>
                <mxCell id="18" value="" style="endArrow=classic;html=1;rounded=0;entryX=1.1;entryY=0.61;entryDx=0;entryDy=0;entryPerimeter=0;exitX=-0.167;exitY=0.61;exitDx=0;exitDy=0;exitPerimeter=0;dashed=1;fillColor=#d5e8d4;strokeColor=#82b366;" edge="1" parent="1">
                    <mxGeometry width="50" height="50" relative="1" as="geometry">
                        <mxPoint x="521" y="200.5" as="sourcePoint"/>
                        <mxPoint x="394" y="200.5" as="targetPoint"/>
                    </mxGeometry>
                </mxCell>
                <mxCell id="19" value="hit" style="edgeLabel;html=1;align=center;verticalAlign=middle;resizable=0;points=[];" vertex="1" connectable="0" parent="18">
                    <mxGeometry x="-0.0709" y="-3" relative="1" as="geometry">
                        <mxPoint as="offset"/>
                    </mxGeometry>
                </mxCell>
                <mxCell id="20" value="alt" style="text;html=1;strokeColor=none;fillColor=none;align=center;verticalAlign=middle;whiteSpace=wrap;rounded=0;" vertex="1" parent="1">
                    <mxGeometry x="334" y="153" width="60" height="30" as="geometry"/>
                </mxCell>
                <mxCell id="21" value="" style="rounded=0;whiteSpace=wrap;html=1;" vertex="1" parent="1">
                    <mxGeometry x="365" y="250" width="25" height="70" as="geometry"/>
                </mxCell>
                <mxCell id="22" value="" style="endArrow=none;html=1;rounded=0;entryX=0.417;entryY=1.017;entryDx=0;entryDy=0;entryPerimeter=0;" edge="1" parent="1" target="34">
                    <mxGeometry width="50" height="50" relative="1" as="geometry">
                        <mxPoint x="549.5" y="439" as="sourcePoint"/>
                        <mxPoint x="548" y="223" as="targetPoint"/>
                    </mxGeometry>
                </mxCell>
                <mxCell id="23" value="" style="endArrow=classic;html=1;rounded=0;entryX=1.1;entryY=0.61;entryDx=0;entryDy=0;entryPerimeter=0;exitX=-0.167;exitY=0.61;exitDx=0;exitDy=0;exitPerimeter=0;dashed=1;fillColor=#f8cecc;strokeColor=#b85450;" edge="1" parent="1">
                    <mxGeometry width="50" height="50" relative="1" as="geometry">
                        <mxPoint x="532" y="274" as="sourcePoint"/>
                        <mxPoint x="405" y="274" as="targetPoint"/>
                    </mxGeometry>
                </mxCell>
                <mxCell id="24" value="miss" style="edgeLabel;html=1;align=center;verticalAlign=middle;resizable=0;points=[];" vertex="1" connectable="0" parent="23">
                    <mxGeometry x="0.0866" y="-2" relative="1" as="geometry">
                        <mxPoint as="offset"/>
                    </mxGeometry>
                </mxCell>
                <mxCell id="25" value="" style="endArrow=classic;html=1;rounded=0;exitX=1;exitY=0.5;exitDx=0;exitDy=0;fillColor=#dae8fc;strokeColor=#6c8ebf;" edge="1" parent="1" source="21">
                    <mxGeometry width="50" height="50" relative="1" as="geometry">
                        <mxPoint x="400" y="320" as="sourcePoint"/>
                        <mxPoint x="690" y="285" as="targetPoint"/>
                        <Array as="points">
                            <mxPoint x="450" y="285"/>
                        </Array>
                    </mxGeometry>
                </mxCell>
                <mxCell id="26" value="fetch data" style="edgeLabel;html=1;align=center;verticalAlign=middle;resizable=0;points=[];" vertex="1" connectable="0" parent="25">
                    <mxGeometry x="-0.0074" y="-1" relative="1" as="geometry">
                        <mxPoint x="76" y="-1" as="offset"/>
                    </mxGeometry>
                </mxCell>
                <mxCell id="27" value="" style="endArrow=classic;html=1;rounded=0;exitX=1;exitY=0.5;exitDx=0;exitDy=0;fillColor=#dae8fc;strokeColor=#6c8ebf;" edge="1" parent="1">
                    <mxGeometry width="50" height="50" relative="1" as="geometry">
                        <mxPoint x="394" y="311" as="sourcePoint"/>
                        <mxPoint x="529" y="312" as="targetPoint"/>
                    </mxGeometry>
                </mxCell>
                <mxCell id="28" value="update cache" style="edgeLabel;html=1;align=center;verticalAlign=middle;resizable=0;points=[];" vertex="1" connectable="0" parent="27">
                    <mxGeometry x="-0.0224" y="1" relative="1" as="geometry">
                        <mxPoint x="-10" y="10" as="offset"/>
                    </mxGeometry>
                </mxCell>
                <mxCell id="29" value="Financial Data Source" style="rounded=0;whiteSpace=wrap;html=1;" vertex="1" parent="1">
                    <mxGeometry x="650" y="70" width="120" height="60" as="geometry"/>
                </mxCell>
                <mxCell id="30" value="" style="endArrow=none;html=1;rounded=0;entryX=0.5;entryY=1;entryDx=0;entryDy=0;" edge="1" parent="1" source="32" target="29">
                    <mxGeometry width="50" height="50" relative="1" as="geometry">
                        <mxPoint x="710" y="440" as="sourcePoint"/>
                        <mxPoint x="450" y="270" as="targetPoint"/>
                    </mxGeometry>
                </mxCell>
                <mxCell id="31" value="" style="endArrow=none;html=1;rounded=0;entryX=0.5;entryY=1;entryDx=0;entryDy=0;" edge="1" parent="1" target="32">
                    <mxGeometry width="50" height="50" relative="1" as="geometry">
                        <mxPoint x="710" y="440" as="sourcePoint"/>
                        <mxPoint x="710" y="130" as="targetPoint"/>
                    </mxGeometry>
                </mxCell>
                <mxCell id="32" value="" style="rounded=0;whiteSpace=wrap;html=1;" vertex="1" parent="1">
                    <mxGeometry x="695" y="250" width="30" height="70" as="geometry"/>
                </mxCell>
                <mxCell id="33" value="" style="endArrow=classic;html=1;rounded=0;entryX=1;entryY=0.75;entryDx=0;entryDy=0;exitX=0;exitY=0.75;exitDx=0;exitDy=0;dashed=1;fillColor=#d5e8d4;strokeColor=#82b366;" edge="1" parent="1">
                    <mxGeometry width="50" height="50" relative="1" as="geometry">
                        <mxPoint x="695" y="300" as="sourcePoint"/>
                        <mxPoint x="390" y="300" as="targetPoint"/>
                    </mxGeometry>
                </mxCell>
                <mxCell id="34" value="" style="rounded=0;whiteSpace=wrap;html=1;" vertex="1" parent="1">
                    <mxGeometry x="535" y="250" width="30" height="70" as="geometry"/>
                </mxCell>
                <mxCell id="35" value="data" style="text;html=1;align=center;verticalAlign=middle;resizable=0;points=[];autosize=1;strokeColor=none;fillColor=none;" vertex="1" parent="1">
                    <mxGeometry x="235" y="228" width="50" height="30" as="geometry"/>
                </mxCell>
            </root>
        </mxGraphModel>
    </diagram>
</mxfile>